<?xml version="1.0" encoding="UTF-8" standalone="no"?>
<svg
   xmlns:dc="http://purl.org/dc/elements/1.1/"
   xmlns:cc="http://creativecommons.org/ns#"
   xmlns:rdf="http://www.w3.org/1999/02/22-rdf-syntax-ns#"
   xmlns:svg="http://www.w3.org/2000/svg"
   xmlns="http://www.w3.org/2000/svg"
   viewBox="0 0 3333.3333 2666.6667"
   height="2666.6667"
   width="3333.3333"
   xml:space="preserve"
   id="svg2"
   version="1.1"><metadata
     id="metadata8"><rdf:RDF><cc:Work
         rdf:about=""><dc:format>image/svg+xml</dc:format><dc:type
           rdf:resource="http://purl.org/dc/dcmitype/StillImage" /></cc:Work></rdf:RDF></metadata><defs
     id="defs6"><clipPath
       id="clipPath18"
       clipPathUnits="userSpaceOnUse"><path
         id="path16"
         d="M 0,2000 H 2500 V 0 H 0 Z" /></clipPath></defs><g
     transform="matrix(1.3333333,0,0,-1.3333333,0,2666.6667)"
     id="g10"><g
       id="g12"><g
         clip-path="url(#clipPath18)"
         id="g14"><g
           transform="translate(2292.9453,172.2148)"
           id="g20"><path
             id="path22"
             style="fill:#ffc300;fill-opacity:1;fill-rule:nonzero;stroke:none"
             d="m 0,0 h 12.094 c 10.185,0 19.568,0.507 19.568,12.358 0,9.944 -8.512,11.504 -16.335,11.504 H 0.016 Z m -11.616,33.214 h 28.845 c 17.652,0 25.974,-7.027 25.974,-21.356 0,-13.517 -8.436,-19.167 -19.492,-20.339 L 44.945,-41.553 H 32.48 L 12.245,-9.383 H 0.008 v -32.17 h -11.61 l -0.015,74.767 z m 24.891,-92.078 c 29.413,0 52.253,23.635 52.253,54.903 0,30.724 -22.855,54.328 -52.253,54.328 -29.776,0 -52.593,-23.604 -52.593,-54.328 -0.008,-31.261 22.817,-54.903 52.593,-54.903 m 0,118.598 c 34.73,0 63.839,-27.497 63.839,-63.672 0,-36.751 -29.109,-64.263 -63.839,-64.263 -34.85,0 -64.203,27.527 -64.203,64.263 0,36.175 29.353,63.672 64.203,63.672 m -704.17,1536.034 c 176.706,0 319.977,-744.988 319.977,-1663.985 h 256.038 c 0,989.713 -257.924,1792.004 -576.007,1792.004 -180.983,0 -342.452,-241.12 -448.033,-618.165 -105.558,377.045 -267.08,618.165 -448.048,618.165 -318.083,0 -576.037,-802.291 -576.037,-1792.004 h 256.068 c 0,918.997 143.287,1663.985 319.969,1663.985 176.736,0 320.059,-687.684 320.059,-1536.034 h 255.978 c 0.01,848.35 143.286,1536.034 320.036,1536.034" /></g></g></g></g></svg>