<svg xmlns="http://www.w3.org/2000/svg" xmlns:xlink="http://www.w3.org/1999/xlink" version="1.1" width="1000" height="1000" viewBox="0 0 1000 1000" xml:space="preserve">
<g transform="matrix(1.3333 0 0 1.3333 596.8328 436.9997)" id="262934">
<path style="stroke: none; stroke-width: 1; stroke-dasharray: none; stroke-linecap: butt; stroke-dashoffset: 0; stroke-linejoin: miter; stroke-miterlimit: 4; is-custom-font: none; font-file-url: none; fill: rgb(0,0,0); fill-rule: nonzero; opacity: 1;" transform=" translate(-422.625, -302.75)" d="m 416.5 311.5 h 12.25 c 5.25 0 8.75 -3.5 8.75 -8.75 s -3.5 -8.75 -8.75 -8.75 h -12.25 c -5.25 0 -8.75 3.5 -8.75 8.75 s 4.375 8.75 8.75 8.75 z" stroke-linecap="round"/>
</g>
<g transform="matrix(1.3333 0 0 1.3333 673.8328 467.333)" id="268988">
<path style="stroke: none; stroke-width: 1; stroke-dasharray: none; stroke-linecap: butt; stroke-dashoffset: 0; stroke-linejoin: miter; stroke-miterlimit: 4; is-custom-font: none; font-file-url: none; fill: rgb(0,0,0); fill-rule: nonzero; opacity: 1;" transform=" translate(-480.375, -325.5)" d="m 474.25 334.25 h 12.25 c 5.25 0 8.75 -3.5 8.75 -8.75 s -3.5 -8.75 -8.75 -8.75 h -12.25 c -5.25 0 -8.75 3.5 -8.75 8.75 s 4.375 8.75 8.75 8.75 z" stroke-linecap="round"/>
</g>
<g transform="matrix(1.3333 0 0 1.3333 546.6728 484.8397)" id="602085">
<path style="stroke: none; stroke-width: 1; stroke-dasharray: none; stroke-linecap: butt; stroke-dashoffset: 0; stroke-linejoin: miter; stroke-miterlimit: 4; is-custom-font: none; font-file-url: none; fill: rgb(0,0,0); fill-rule: nonzero; opacity: 1;" transform=" translate(-385.005, -338.63)" d="m 378.88 347.38 h 12.25 c 5.25 0 8.75 -3.5 8.75 -8.75 s -3.5 -8.75 -8.75 -8.75 h -12.25 c -5.25 0 -8.75 3.5 -8.75 8.75 s 4.375 8.75 8.75 8.75 z" stroke-linecap="round"/>
</g>
<g transform="matrix(1.3333 0 0 1.3333 499.9862 406.0692)" id="102510">
<path style="stroke: none; stroke-width: 1; stroke-dasharray: none; stroke-linecap: butt; stroke-dashoffset: 0; stroke-linejoin: miter; stroke-miterlimit: 4; is-custom-font: none; font-file-url: none; fill: rgb(0,0,0); fill-rule: nonzero; opacity: 1;" transform=" translate(-349.995, -279.5575)" d="m 147 237.12 h 10.5 l 28 259 c 0.875 4.375 4.375 7.875 8.75 7.875 h 159.25 h 3.5 h 153.12 c 19.25 0 35 -14.875 35 -33.25 v -15.75 c 9.625 -2.625 16.625 -11.375 16.625 -21.875 v -8.75 c 0 -10.5 -7 -19.25 -16.625 -21.875 v -20.125 h 1.75 c 5.25 0 8.75 -3.5 8.75 -8.75 v -1.75 c -0.875 -31.5 -13.125 -61.25 -35.875 -84 s -53.375 -35.875 -85.75 -35.875 c -13.125 0 -26.25 2.625 -37.625 6.125 l 2.625 -21 h 10.5 c 5.25 0 8.75 -3.5 8.75 -8.75 v -33.25 c 0 -5.25 -3.5 -8.75 -8.75 -8.75 h -9.625 v -10.5 c 0 -12.25 -9.625 -21.875 -21.875 -21.875 h -75.25 v -90.125 c 0 -5.25 -3.5 -8.75 -8.75 -8.75 h -31.5 c -5.25 0 -8.75 3.5 -8.75 8.75 v 90.125 h -75.25 c -12.25 0 -21.875 9.625 -21.875 21.875 v 10.5 h -9.625 c -5.25 0 -8.75 3.5 -8.75 8.75 v 33.25 c 0 4.375 4.375 8.75 8.75 8.75 z m 126.88 0 h 63.875 l -148.75 127.75 l -14 -127.75 z m -77 203 l 120.75 -103.25 c -3.5 11.375 -5.25 23.625 -5.25 36.75 c 0 5.25 3.5 8.75 8.75 8.75 h 1.75 v 20.125 c -9.625 2.625 -16.625 11.375 -16.625 21.875 v 8.75 c 0 10.5 7 19.25 16.625 21.875 v 16.625 c 0 5.25 1.75 10.5 4.375 14.875 h -124.25 z m 347.38 -7 c 0 3.5 -2.625 5.25 -5.25 5.25 h -210 c -3.5 0 -5.25 -2.625 -5.25 -5.25 v -8.75 c 0 -3.5 2.625 -5.25 5.25 -5.25 h 210 c 3.5 0 5.25 2.625 5.25 5.25 z m -16.625 -31.5 h -187.25 v -19.25 h 187.25 z m -17.5 85.75 h -153.12 c -9.625 0 -17.5 -7 -17.5 -15.75 v -15.75 h 187.25 v 15.75 c 0.875 8.75 -7 15.75 -16.625 15.75 z m -2.625 -187.25 c 17.5 17.5 28 40.25 29.75 64.75 h -206.5 c 4.375 -53.375 49 -95.375 104.12 -95.375 c 26.25 0 52.5 10.5 72.625 30.625 z m -162.75 -8.75 s -0.875 0 0 0 l -149.62 126.88 l -3.5 -33.25 l 174.12 -148.75 h 14.875 l -3.5 28.875 c -12.25 7 -23.625 15.75 -32.375 26.25 z m -73.5 -218.75 h 13.125 v 81.375 h -13.125 z m -97.125 103.25 c 0 -2.625 1.75 -4.375 4.375 -4.375 h 198.62 c 2.625 0 4.375 1.75 4.375 4.375 v 10.5 h -207.38 z m -18.375 28 h 244.12 v 15.75 h -233.62 h -0.875 h -8.75 v -15.75 z" stroke-linecap="round"/>
</g>
</svg>