<svg xmlns="http://www.w3.org/2000/svg" xmlns:xlink="http://www.w3.org/1999/xlink" version="1.1" width="1000" height="1000" viewBox="0 0 1000 1000" xml:space="preserve">
<desc>Created with Fabric.js 3.5.0</desc>
<defs>
</defs>
<g transform="matrix(1.3333 0 0 1.3333 499.9772 406.6506)" id="542139">
<path style="stroke: none; stroke-width: 1; stroke-dasharray: none; stroke-linecap: butt; stroke-dashoffset: 0; stroke-linejoin: miter; stroke-miterlimit: 4; is-custom-font: none; font-file-url: none; fill: rgb(0,0,0); fill-rule: nonzero; opacity: 1;" transform=" translate(-349.9883, -279.9948)" d="m 567.78 501.04 l -32.438 -308.32 c -1.1758 -11.641 -6.6445 -22.422 -15.336 -30.25 s -19.988 -12.141 -31.684 -12.102 h -0.48047 l -31.684 0.30469 v -37.531 c 0 -38.027 -20.285 -73.164 -53.219 -92.176 c -32.93 -19.016 -73.504 -19.016 -106.44 0 c -32.93 19.012 -53.219 54.148 -53.219 92.176 v 39.617 l -33.133 0.32422 c -11.625 0.11328 -22.801 4.5039 -31.395 12.332 c -8.5938 7.832 -14.004 18.555 -15.191 30.121 l -31.371 305.07 c -1.3711 13.301 2.9531 26.562 11.906 36.5 c 8.9531 9.9336 21.691 15.617 35.066 15.637 l 341.52 0.54297 h 0.085937 v -0.003906 c 13.402 -0.003906 26.172 -5.6953 35.133 -15.66 c 8.9648 -9.9609 13.281 -23.258 11.875 -36.586 z m -290.33 -387.89 c 0.23828 -25.66 14.066 -49.273 36.328 -62.035 c 22.266 -12.762 49.625 -12.762 71.891 0 s 36.09 36.375 36.328 62.035 v 37.875 l -144.55 1.4258 z m 253.06 401.64 c -2.4023 2.875 -5.9961 4.4805 -9.7422 4.3555 l -341.52 -0.54297 v 0.003907 c -3.7188 -0.003907 -7.2578 -1.5781 -9.75 -4.3398 c -2.4883 -2.7578 -3.6953 -6.4453 -3.3164 -10.141 l 31.371 -305.09 c 0.60937 -6.6875 6.2266 -11.805 12.941 -11.789 l 32.797 -0.32422 l 0.003906 28.18 c 0.11328 6.0273 3.3945 11.547 8.6328 14.527 c 5.2383 2.9805 11.66 2.9805 16.898 0 c 5.2383 -2.9805 8.5195 -8.5 8.6328 -14.527 v -28.508 l 144.55 -1.4141 l 0.003907 29.922 c 0 6.1016 3.2539 11.742 8.5391 14.793 c 5.2852 3.0508 11.793 3.0508 17.078 0 s 8.5391 -8.6914 8.5391 -14.793 v -30.25 l 32.02 -0.3125 h 0.13281 c 6.7383 -0.035156 12.395 5.0625 13.066 11.766 l 32.438 308.32 c 0.51953 3.7188 -0.70312 7.4688 -3.3125 10.168 z" stroke-linecap="round"/>
</g>
</svg>