<?xml version="1.0" encoding="utf-8"?>
<!-- Generator: Adobe Illustrator 19.2.1, SVG Export Plug-In . SVG Version: 6.00 Build 0)  -->
<svg version="1.1" id="layer" xmlns="http://www.w3.org/2000/svg" xmlns:xlink="http://www.w3.org/1999/xlink" x="0px" y="0px"
	 viewBox="0 0 652 652" style="enable-background:new 0 0 652 652;" xml:space="preserve">
<style type="text/css">
	.st0{fill:#E43850;}
	.st1{fill:#FFFFFF;}
	.st2{fill:#29110A;}
	.st3{fill-rule:evenodd;clip-rule:evenodd;fill:#E43850;}
	.st4{fill:#02A9E1;}
	.st5{fill-rule:evenodd;clip-rule:evenodd;fill:#971D3E;}
	.st6{fill-rule:evenodd;clip-rule:evenodd;fill:#FBCBC5;}
	.st7{fill-rule:evenodd;clip-rule:evenodd;fill:#FFFFFF;}
	.st8{fill-rule:evenodd;clip-rule:evenodd;fill:#29110A;}
</style>
<path class="st0" d="M401.4,445.4c-3.1,6.7-6.6,12.6-10.5,17.7c-3.8,5-7.8,9-11.8,12c-3.5,2.6-6.3,4.5-8.7,4.1
	c-1.6-0.4-1.4-3.2-1.2-5c0.5-5.2,2.1-10.4,4.7-15.6c2.6-5.3,5.9-10.1,9.7-14.6c3.8-4.4,8.1-8.1,12.5-11c3.6-2.2,7-3.8,10.4-4.7
	C405.6,434.3,403.9,440.1,401.4,445.4 M443.1,328.2c-10-1.6-17.2,6.3-20.4,14.1c-1.1,2.7-1.4,4.1-2.6,7.7c-1.1,3.4-1.5,5.9-2.3,9.6
	c-0.7,2.5-1.5,6.5-1.8,8.2c-0.7,3.3-0.8,3.8-1.6,8.6c-0.9,4.9-1.4,8.1-2.1,12.4c-0.5,3.2-0.9,5.9-1.3,9.2
	c-7.2,1.8-14.6,4.7-21.9,8.8c-7.8,4.4-15.2,10.3-21.7,17.2c-6.6,7.1-12.4,15.3-17.1,24.7c-4.7,9.4-7.7,19.9-8.9,31.2
	c-0.3,1.4-0.3,2.9-0.3,4.5c-0.9-0.8-1.9-1.8-2.5-2.9c-1.4-2.1-2.5-4.6-3.2-7.8c-0.6-2.9-1.1-6.6-1-9.5c0.1-3.3,0.1-5.3,0.4-7.4
	c0.2-2.4,0.5-4.7,1-6.8c0.2-1.4,0.4-2.6,0.5-3.9l0.4-2.3c1.4-9.1,2-15.2,1.1-21.4c-0.6-4.1-3.8-12-11.8-12.2l-2,0.1
	c-5.3,0.6-11.7,3.6-15.6,6.3c-5.1,3.7-10,8.3-14.3,13.7c-1.8,2.3-3.4,4.4-4.6,6.3c0.9-2.4,1.9-4.9,2.9-7.2c0.6-1.5,1.1-2.9,1.7-4.5
	l0.2-0.5c1.3-3.4,2.6-7,3-9.8c0.2-2.6-0.1-4.7-1.2-6.2c-0.9-1.3-1.9-2.3-3.2-2.9c-1.3-0.6-2.5-0.9-3.8-0.9l-2.2,0.1
	c-3.1,0.2-5.8,1.2-8.2,2.9c-2,1.3-3.8,2.8-5.4,4.5c-1.6,1.9-3,3.9-4,5.9c-1.8,2.8-3.4,6.7-4.9,11.8c-1.4,4.8-2.9,10-4.1,15.8
	c-1.2,5.5-2.4,11.2-3.5,16.9c-0.9,5.7-1.8,10.6-2.2,14.8c-0.6,5.1-0.9,10-1.1,14.7c-0.3,4.8-0.2,9.2,0.2,13c0.5,4.1,1.4,7.5,2.8,9.9
	c1.8,3.1,4.8,4.5,8.6,4.1h0.2c0.7-0.1,3.2-0.5,5.5-1.3c2.1-0.7,5.4-3.2,8.1-7.7c1.6-2.6,3.3-9.3,5.1-17.9c0.5-2,0.9-3.7,1.3-5.2
	c7.7-30.9,18.7-37.3,24.3-38.5c-0.4,3.5-0.8,6.9-1.2,10.5c-0.2,4.5-0.6,8.6-0.7,13.3c0.1,9.1,1,14.3,2,18.8
	c1.2,5.1,3.5,11.3,6.3,14.5c3.2,3.9,6.3,6.3,11.8,6h0.1h0.1c2.4-0.3,3.6-0.6,6.2-1.7c2.7-1.3,3.8-2.2,6.1-4.5
	c1.7-1.7,2.7-3.3,3.4-4.8c1,1.9,2.3,3.6,3.9,5.1c2.4,2.2,6,3.4,10.5,3.2h0.4c0.4,0,1.5-0.1,5-0.6c3.2-0.5,7-1.8,11.5-3.8
	c4.4-2.1,9.3-5.3,14.8-9.5c3.8-3,7.7-6.9,11.7-11.5c-0.4,6.5-0.7,12.9,2.1,21.5c1.2,3.5,2.6,6.4,4.9,9.7c2.6,3.6,6.6,5.5,11.8,5.5h0
	l0.6,0c2.5-0.5,4.5-1.2,6.2-2c1.7-1,3.5-2.4,4.9-4.2c1.9-2.1,2.9-4.9,3.3-8.3c0.2-1.1,0-2.2-0.1-3.7c-0.3-1.3-0.9-2.3-1.6-3.4
	l-0.9-1.4c-1.7-3.1-2.8-5.8-3.4-8c-1.2-5.7-1.6-10.5-1.3-19.8c0.1-4.4,0.4-9.2,0.8-13.9c0.4-4.5,0.8-9.2,1.4-14
	c0.3-3.2,0.7-6.3,1-9.6c0.1-1.2,0.2-2.2,0.3-3h0.6c2.3,0,4.7-0.8,7.1-2.5c2.8-2,4.6-5.7,5.1-11c0.5-4.4-0.6-8.1-3.2-10.8
	c-1.6-1.6-3.3-3-5.3-4.1c0.3-1.8,0.6-3.3,0.8-4.8c0.3-1.8,0.6-3.5,0.9-4.8l0.6-2.9l0.5-2.4c0-0.2,3.2-15.3,9.4-37.9
	c1.1-3.7,1.6-6.5,1.7-8.9C450.2,335.1,449.3,329.3,443.1,328.2 M533.1,407.8c0.4,2.1,0.6,4.7,0.2,7.9c-0.2,3-0.8,6.3-1.6,9.9
	c0,0.2-4.5,18.4-6.3,27.1c-1.4,6.9-2.3,12.4-3.3,18.7l0,0.4c-1,6.1-2.5,19.7-3.4,29.3c-1.7,18.6-2.1,23-7,37.3
	c-5.2,14.5-16.5,24.3-21.9,27.4c-9.7,5.6-20.7,8.5-32.6,8.8h0H457l-1.8-0.2c-1.3-0.1-2.7-0.2-4.1-0.4c-12.6-2.3-19.7-10.5-18.4-21.2
	c0.8-5.6,4.9-8.9,10.3-8c5,0.8,9.7,1.3,13.9,1.3c12.9-0.2,22-4.6,27.2-13.9c5.5-9.5,6.2-15.9,7.1-24.7c0.2-1.1,0.3-2.2,0.4-3.4
	c0.5-4.5,0.9-8.7,1.4-13.1c-2.2,2.8-4.2,5.3-6.1,7.3c-4,3.9-7.7,6.9-11,8.9c-3.9,2.4-7.8,3.8-11.4,4.2h-0.1h0
	c-6-0.1-10.7-2.5-13.8-7.1c-2.7-3.9-4.8-9-6.2-14.8c-1.5-5.7-2.1-11.8-2.2-18.3c-0.1-6.1,0.2-12,0.7-17.3
	c1.6-16.4,4.8-29.5,9.7-38.8c5.5-10.5,12.4-15.7,20.7-15.5c0.3,0,1,0,2.2,0.2c1.4,0.2,2.7,0.7,3.9,1.4c1.3,0.9,2.3,2.2,3.2,3.8
	c0.8,1.8,1.1,4.1,0.8,6.8c-0.2,2.7-1.2,5.8-3,9.2c-1.6,3.3-3.1,6.9-4.6,10.8c-1.2,3.5-2.4,7.5-3.6,12.1c-1.2,4.5-2,9.3-2.5,14.4
	c-0.1,0.8-0.2,2.6-0.3,5.4c-0.2,2.3-0.1,4.6,0.1,7.3c0.1,2.3,0.5,4.2,1.3,5.8l1.7,1.6l1.7,0.3c1.1,0,2.3-0.4,3.4-1.2
	c1-0.6,3.1-2.6,5.7-6.1c1.8-2.6,5.3-7.8,8.1-14.8c1.4-3.3,3.1-8.6,4.9-14.3c2-6.4,5.5-18.9,7.7-24.2c1.3-3.3,2.7-6.2,4.4-8.9
	c1.4-2.5,4-5,5.9-6.3c3-2,6.1-3,9.7-2.8c0.8,0,1.6,0.2,2.8,0.4c1.5,0.5,2.8,1.3,4,2.6C531.7,403.8,532.5,405.5,533.1,407.8
	 M539.3,405c-0.3-1.5-0.6-3.2,0.1-5.8c0.3-1.1,1.3-3.7,2-6.2c0.6-3.2,0.9-6.4,0.2-9.4c-0.7-2.7-0.9-6.5-0.1-8.7
	c1.1-3.3,4.1-5.2,6.1-5.5c3.2-0.6,6.4-0.4,9.1,1.1c3,1.4,5.4,5.1,6.1,7.7c1.4,5.6,0.7,10,0.2,13.6c-0.7,4.2-2.5,8.1-4.4,11.2
	c-1.3,2.3-3.4,4.2-5.3,5.6c-2.3,1.7-6.1,2.4-10,0.9C541.5,408.9,539.7,406.4,539.3,405 M605.2,483.6c-1,7.2-3.7,13.1-8.3,17.6
	c-4.3,4.2-9.2,7.7-14.7,10.1c-5.4,2.4-10.9,4-16.4,4.6c-5.2,0.7-9.4,0.8-13.1,0.5l-1-0.2c-8.8-1.1-14.7-4-18.2-8.9
	c-3.4-4.8-4.8-9.8-4.2-14.9c0.8-6,3.9-9,6.3-10.3c2.9-1.6,5.4-2.5,7.8-2.2h0.2c2.3,0.4,5,1.5,8,3.7c2.2,1.5,5,2.5,8.5,3
	c4.6,0.6,8.2,0.4,10.5-0.9c1.6-0.8,2.6-1.7,2.6-2.5c0.1-0.3,0.2-1.1-1.1-2.3c-1.5-1.4-3.6-3-6.2-4.3c-2.8-1.4-5.8-3-9.2-4.6
	c-3.6-1.7-6.9-3.6-9.8-5.8c-3.2-2.3-5.8-5.1-7.8-8.2c-2.2-3.5-2.9-7.8-2.2-12.6c0.6-5.4,2.9-11,6.8-16.7c3.6-5.2,8.1-10.1,13.4-14.4
	c5.3-4.1,11.2-7.4,17.5-9.6c6.5-2.5,13.1-3.2,19.2-2.2c6,0.9,10.6,3.8,13.8,8.3c3.1,4.7,4.1,11.2,3,19.2c-0.5,4-1.9,7.4-4,10.5
	c-1.8,2.6-5.3,5.6-11.7,4.5c-4.3-0.6-6-3.1-6.8-5c-0.5-1.6-1.1-3.3-1.4-5.2l-1-3.4l-2.4-0.7c0,0-1-0.1-3.2,0.6
	c-1.9,0.6-3.8,1.5-5.6,2.6c-1.9,1.1-3.6,2.5-5.1,4.2c-1.2,1.2-1.9,2.7-2.1,4c-0.1,0.7-0.2,1.9,1.2,3.2c1.7,1.7,4,3.4,6.6,5.1
	c2.7,1.6,5.8,3.4,9.4,5.1c3.8,2,7.3,4.2,10.3,6.5c3.2,2.6,5.9,5.5,7.9,8.7C605,474.5,605.8,478.8,605.2,483.6 M228.2,453.9
	c-3,4.7-5.9,8.5-9.1,11.3c-3.5,3.2-6.3,4.9-9.5,6.8c-1.5,0.8-2.7,1.3-3.8,1.5c0.6-2.9,1.5-6.6,2.8-9.8c2-4.8,4.3-9.4,7.3-13.9
	c3.4-5.2,6.2-8.7,9.1-11.2c1.9-1.7,3.7-2.9,4.9-3c3-0.5,3,3.3,3,4.1C232.9,444.6,230.5,450.3,228.2,453.9 M247.4,414.7
	c-2.3-1.6-5-2.7-7.7-2.8c-2.5-0.2-5.5-0.1-7.7,0.3h-0.2c-4.7,0.9-9.6,2.5-13.1,4.6c-3.6,1.9-7.1,4.5-10.4,7.7
	c-2.8,2.7-6,5.8-8.8,9.6c-1.7,2.5-5.1,7.4-7.9,13c-3.7,7.5-7,16.1-9.9,26.4c-1.9,0-5.8-0.9-7.7-1.2c-1.3-0.3-1.8-0.4-2-0.5h-0.8
	c8.5-36.5,14.4-57.3,18.8-71.7c2.3-7,4.7-14,7.1-21c1.8-3.9,2.9-9.4,2.8-12c-0.5-7.3-5.4-14.7-14.1-12.8c-9.2,2.2-14.6,14.4-22,41.2
	c-6.2,22.5-9.7,37-14.8,61.4c-2.1,11.1-4.4,22.2-6.5,33.4c-0.3,1.6-0.7,3.4-1,5c-0.8,3.5-1.1,4.5-2.3,4.7c-0.6,0.1-1.3-0.2-1.7-1.6
	c-0.7-3.2-1.3-9.6-1.8-17.8c-0.6-19.1-2.1-38.8-1.5-63.7c0.4-14.2,0.4-16.6-0.5-20.2c-1.7-7.1-10.2-11.3-19.4-8.9
	c-9.2,2.5-11.9,13.1-17.2,27.7c-3.6,9.9-9,27.5-14.4,44.6c-5,17.6-11,39.2-11,39.2c-0.4,1.5-0.7,3-1.2,4.6l-1,4.4
	c-1.3,3.7-1.7,4.4-2.7,4.7l-1.6-1.6c-0.6-2.3-0.5-16.5-0.3-23.9c0.3-15.2,1.8-31.7,3.2-46.5c0.8-10.7,3.4-29.4,4.2-40
	c0.3-3.2,0.6-6.6,0.6-8.9c0.2-6.8-0.3-10-3.1-13.4c-4.6-4.2-10.1-3.9-16.3-2.4c-10.2,2.5-17.9,8.9-17,12.5l1.2,1.8
	c1.5,2.3,2.3,3.6,3,5.9c0.8,2.8,1.1,6.6,1.1,12.7c-0.2,5.5-0.5,11-0.7,16.6c-1.3,16.7-3.2,46.6-3.7,67.1c-0.4,17.7,0.1,30,1.5,47.5
	c0.7,8.8,2.5,16,3.5,19.8c1.6,7,5.1,14.7,11,16.2c4.3,1.2,7.8,0.8,13.5-0.7c5.3-1.4,13.2-6.6,14.9-14.8c2.3-9.2,4.5-18.4,6.8-27.5
	c2-9.8,6.6-27.2,10.4-42.2c2.3-8.9,5.2-19,6.7-24.2c1-2.4,1.5-3.3,2-3.4l1.1,0.6l0.2,1.7v1.8c0,1.9,0.1,3.7,0.2,5.7
	c0.4,18.3,3.8,50,7,63c2.1,8.4,2.7,18.9,15.3,20.9c5.8,0.9,10.7-0.8,10.7-0.8c9.2-2.9,11.7-8.5,13.8-18c1.4-6,5.6-22.4,7.9-33
	c0.6-3.2,1.3-6.4,1.9-9.3c1.8,0.5,9.5,1.8,12.8,2l0.2,2.2l0.2,1.7l0.3,2.4l0.8,3.2c1.3,5.5,3.4,10.3,6.1,14.1
	c2.8,3.7,5.5,6.2,9.3,8.4c3.7,2.1,9.9,3,15.9,2.3l2.3-0.2l0.5-0.1l1.1-0.2l0.1-0.1l2.8-0.6c9.3-2.8,21.3-11.4,25.5-23.9
	c1.8-4.9,0.8-8.1-0.3-9.8c-1.2-1.8-3.2-3-5.1-3l-2,0.2c-4.1,0.8-7.1,3.1-9.8,5.2c-2.4,1.9-4.7,3.7-7.6,4.3c-3.3,0.7-5.6,0.5-7.4-0.4
	c-2.1-1-2.8-1.9-3.7-4.1c-0.5-1.4-0.8-2.9-1-4.8c5.3-1.4,11.4-4.2,16.4-7.5c5.6-3.8,10.8-8.4,15.2-13.7c4.5-5.3,8.2-11.3,11.1-17.6
	c2.7-6,4.8-14.1,5.2-20.9c0.4-5.3-0.1-9.7-1.6-13C251.6,418.7,249.7,416.3,247.4,414.7"/>
<path class="st0" d="M609.1,513.9h0.7l1.5-0.9l-1.4-1l-0.7,0.1V513.9z M609,517.6h-1.4v-6.5l2.4-0.2c1.2,0,1.8,0.2,2.2,0.6l0.6,1.3
	l-1.3,1.6v0l1.1,1.7l0.5,1.6h-1.5l-0.6-1.6l-1.3-1.1H609V517.6z M610,509c-2.8,0-4.9,2.3-4.9,5.2c0,2.9,2.1,5.3,4.9,5.3
	c2.7,0,4.8-2.3,4.8-5.2C614.9,511.3,612.8,509,610,509 M610.1,507.6c3.5,0,6.4,2.9,6.4,6.6c0,3.7-2.9,6.6-6.5,6.6
	c-3.6,0-6.5-2.9-6.5-6.6C603.5,510.5,606.4,507.6,610.1,507.6L610.1,507.6z"/>
<path class="st1" d="M440.8,219.2c0,67.9-53.1,123-118.8,123c-65.6,0-118.7-55.1-118.7-123c0-68,53.1-123,118.7-123
	C387.7,96.2,440.8,151.2,440.8,219.2"/>
<path class="st2" d="M321.5,100.6c-31.1,0-60.3,12.8-82,35.9c-43.9,46.7-42.8,121.8,2.4,167.2c21.5,21.5,49.7,33.4,79.6,33.4
	c31.2,0,60.3-12.8,81.9-36c21.3-22.7,32.7-52.5,32.2-84.1c-0.4-31.6-12.7-61-34.6-83C379.6,112.5,351.3,100.6,321.5,100.6
	 M321.5,347.3c-32.4,0-63-12.9-86.3-36.3c-49.1-49.3-50.3-130.8-2.7-181.5c23.5-25.2,55.1-39,89-39c32.4,0,63,12.9,86.3,36.2
	c23.8,23.9,37.2,55.9,37.7,90.3c0.5,34.2-11.9,66.7-35,91.2C387,333.4,355.3,347.3,321.5,347.3"/>
<path class="st3" d="M456.9,276.2c-2.3,1.4-6.9,2.3-8.2,1.4c-0.8-0.4,2-0.9,4.4-2.1c12.8-6.8,10.5-28,6.7-23.5
	c-2.7,3.7-6.4,7.4-13.3,7.2c6.2-7.6,6.9-18.1,4.6-16.3c-4.5,4.8-12.3,21.3-46.7,15.6c0.9-1.2,2.1-2.4,3.2-3.6
	c-1.8-1-3.6-2.8-5.4-5.5c-5.3-8.6-9.7-10.1-12.4-10.8c4.4-4.4,7.4-9,10-14.2c8.9-19.7,7.9-41.1,6.9-46.8c-1-8.7-3.1-22.3-9.8-35.1
	c-7.5-14.4-14.8-40.8-40.1-49.6c-5.1-0.3-7.8,0-12.3,2l-5.2-5.5c-2.7-2.4-10.5-4.6-14-5.9c-7.3-0.2-13.6-1.9-21.6,0.3
	c-33.8,9.5-48.9,27-58.9,59.1c-0.8,2.7-2,11.3-2.1,14c0.3-0.9-11,34.6-3.5,54c1.4,1.7,1.6,4.8,2.9,6.4c3.6,8.6,9.3,13.9,12.7,21.7
	c-11.1,0.6-15,18-15.3,19.5c-34.8,5.9-42.8-10.8-47.3-15.6c-2.1-1.9-1.5,8.7,4.8,16.3c-6.9,0.2-10.5-3.5-13.3-7.1
	c-3.8-4.4-6.1,16.8,6.8,23.5c2.4,1.3,5.1,1.7,4.4,2.2c-1.4,0.9-6,0-8.2-1.5c-1-0.6-1.3,1.1-0.3,2.2c33.1,22.8,48.4-2.2,53.5-3
	c18.3,5.4,50.8-8,36.4-19.5c-3.9-6.3-9.8-17.2-9.9-29.7c-0.9-7.1-0.1-9.3-7.6-8.6c2.7-8.6,5.4-16.1,2.7-29l-1.4,1
	c14.7-14.9,43.8-16.6,59.7-33c2.1-3.7,10.3-4.9,12.2-8.8c-1.8,13.4-7.6,25.3-19.6,37c0,0,8.4,0,15.1-4.9
	c11.4-8.5,16.7-18.8,24.7-27.6l2.1-3.1c1.3,0.8,3.9,2.9,4.7,4.3c9.2,14.8,1.7,11.2,12,24.8l2.2,4.5c2.3,4.4,3.3,7.1,6.2,11.2
	c3.7,2.6,2.9,7,5.1,14.7c-0.6,9.5-2.4,16.8-8.6,21c-0.3,8.2-7,27.3-7,27.3c0.6,1.9-7.1,14.5,10.9,18.3c4.8,1,12,0,18.1-1.2
	c0.5-4,1.8-7.9,3.8-11.5c-0.2,1.2-0.3,2.3-0.3,3.5c0,3.3,0.7,6.4,1.7,9.4l0.6-0.2c5,0.7,20.2,25.8,53.5,3
	C458.3,277.2,457.9,275.6,456.9,276.2"/>
<path class="st4" d="M362.3,303.2c-1.3-3.3-2.3-5.5-2.2-8.5l-1.4-1.2l0.1,3.4l-5.9-2.4c-0.5,0.8-0.8,2-0.7,3.7
	c1.9,11.5,7.1,17.4,8.5,18.9c1.4,1.5,2.5,1.7,3.8,1.7c1.4,0.2,2.5-0.3,3.4-1.4C370.1,314.3,364.9,309.3,362.3,303.2"/>
<path class="st4" d="M302.4,307.1l-3.1-3.8c-2.2,13.9-7.1,17.6-5.5,21.1c0.5,1.1,1.7,2.1,1.7,2.1l2.1,0.7c1.2,0,2.3-0.2,3.1-1.3
	c3.7-4.7,6.2-12.5,7.1-17.6v-3.2L302.4,307.1z"/>
<path class="st4" d="M291.7,300.5l-5.2-1.3l-0.6-3.3l-1.1,1.6c-0.5,2.2-0.9,4.1-2.9,8.7c-2.2,5.2-8.9,10.5-2.2,12.6
	c2.2,0.5,3.4-0.4,4.4-1.2c4-3.7,7.6-12.2,9.3-17.4l0.6-2.9L291.7,300.5z"/>
<path class="st4" d="M343.9,307.2l-6.1-3.3c1.9,11,5.8,18.8,7.9,21.7c0.9,1,2,1.6,3.3,1.8l2.2-0.4c0,0,1.6-0.8,2.1-2
	c1.2-3.6-4.6-9.5-6.1-22.9L343.9,307.2z"/>
<path class="st4" d="M319.6,328.7c6.4,1.7,12.2-3.4,12.2-5.1c0.1-1.3-3.2-6.8-4.5-8.1c-0.7-0.7-3.4-2.7-6.9-1.4
	c-2,0.7-5.8,4.7-5.7,8.3C314.9,325.6,319.6,328.7,319.6,328.7"/>
<path class="st5" d="M276.1,163.2c18.1-5.5,25.7-20.4,42.7-32.7c-2.9,0.4-6.4,2-8.8,3.5c-14.3,8.5-18.8,12.2-25.5,17
	c-6.8,4.7-15.4,10.4-21.6,12.7C262.8,163.7,267.2,166.3,276.1,163.2 M357.9,86.7c-5.6-0.8-8.3-0.8-12.9,1.4c-0.4-2-1.2-3.3-2.1-4.1
	c-4.9-5.1-13.9-5.7-18.2-6.5c-5.3-0.4-14.3-0.6-22.9,1.7C269,87.7,254.3,110,245,142.5c-1.8,6.6-3.7,16-4.8,25
	c-4.1,9.7-11.7,34.6,4,58.9c2.9,4.4,12.2,16.5,14.7,23.1c3.4,15.9-16.1,6.4-29.8,20.8c0,0-11.3,15.1-33.1,12
	c-3.7-0.7-7.1-1.8-9.8-4.1l1.6,1.8c13.8,12.6,34.2,10.7,45.7,0.4c2.6-2.3,2.6-3.7,11.3-3.7c15.2,0,28.7-1.2,36.6-13.1
	c-6.1-8.3-8.8-11.1-11.3-16.3c0-2.6-0.8-6-2.7-10.3c-1.3-16.1-2.9-18.3-2.7-26.4c-0.6-10.4-0.1-22.3,10.2-26.7
	c10.4-4.4,13.2-3,30.9-12.6c32.8-17.5,33.6-39.1,30.2-41.9c0,0-7.7,13.8-17.3,22.6c-14.5,13.1-32.9,17.9-52.5,25.5
	c-19.5,7.6-22,15.4-22,15.4c-4.9-29.1,11.8-45.9,11.8-45.9c-1.6-0.6-10.1,9.8-13.8,15.8c4.2-18.9,8.8-30.4,13.5-39.9
	c1.2-2.3,4-6.7,6.5-9.9c5.2-6.1,7.5-8.6,15.3-14c4.8-3.4,10.3-6.6,17-8.5c14.7-4,36.4-3.6,45.2,4c2.3,2,3.3,5.3,3.3,5.3
	s4.2-2.6,7.2-3.5c4.3-1.3,9.2,0,12.3,1.3c17.2,8,21.2,28,34.2,44.9C384.1,115.3,381.5,92.2,357.9,86.7 M381.9,149.7
	c7.4,10.1,25.5,27.7,23.8,55.4c0,0,2.3-7,2-16.2c-1.1-40.8-23.3-42.5-40.3-76.1C367.4,112.8,364.9,126.6,381.9,149.7 M457.4,278.2
	l-1.5,1.7c-13.8,12.6-34.3,10.7-45.9,0.5c-1.9-1.7-2.4-3-6.3-3.5c-1.4-3.3-2.2-6.9-2.2-10.7c0-1.2,0.2-2.3,0.3-3.5
	c-1.6,2.9-2.8,5.9-3.4,9.1l-1.5,0.9c-16.6,6.7-26.6,2.2-33-11.2l4.5-6.4c1.3-3,5.4-12,6.5-24.3c1.9-16.3,1.8-20,2.4-24
	c0.8-7.8,0.8-9.8-0.9-15.3c-1.4-4.6-2.5-6.2-5.2-11.4c-6.5-9.7-9-14-12.1-20.3c-2.3-4.4-2.8-6.6-3.6-9.2c0,0-6,15.1-18.3,24.6
	c-10.5,8-18.7,10.7-24.7,9.5c9.1-5.3,18.5-11.2,25.5-23c9.7-16.4,11.5-33,11.5-33s0.6-0.1,2.6,1.1c1.5,0.9,4.2,3.8,5.5,8.9
	c0.6,1.9,2.7,9.1,5.1,15c4.6,10.5,8.8,15.6,18.1,24.4c8.9,8.6,17.6,20.7,14.4,38.5c-2,10.4-6.4,16.8-11.4,25.6
	c-1.6,3.4-2.1,5.9-1.7,9.5c1.3,9.5,10.5,4.4,21.9,7.3c-0.8,1.1-1.5,2.1-2.2,3.5c4.3,1.3,8.8,3.4,12.8,7.6c0,0,11.3,15.1,33.1,12.1
	C451.3,281.6,454.7,280.4,457.4,278.2"/>
<path class="st6" d="M381.3,194c-2-0.4-2.8,0.6-3.8,2.6c-0.1-1.4-0.6-3-1.1-5.1c-1.4-4.6-2.6-6.1-5.3-11.4c-6.5-9.8-9-14-12.1-20.3
	c-2.3-4.4-2.8-6.6-3.5-9.2c0,0-6,15.1-18.4,24.7c-10.6,8.1-18.7,10.7-24.6,9.5c11.4-11.2,17.1-22.4,19.3-34.9
	c-4.7,6.7-12.7,14.3-25.6,21.3c-17.7,9.6-20.5,8.2-30.9,12.6c-7.3,3.1-9.7,10.1-10.3,17.7c0-1.3-0.1-2.3-0.3-3.3
	c-0.2-4.2-1.4-4.1-1.4-4.1s-6.5,0.1-6.9,10.2c-0.1,6.2,0.9,8,1.8,10.1c1,2.4,2.1,5.4,3.5,6.1c2.6,1.2,3.7,0.4,4.1-0.1l0.1,0.9
	l0.1,0.9l0.3,1.4c2,13.5,3.9,21.7,7.3,26.8l0.8,2.1c0.8,1.4,1.4,2.5,2.1,3.6c2.2,1.8,3.4,3.6,3.6,5.3l0.4,0.6l1.3,1.7l0,0.2l0.9,1
	c1.4,1.5,2.8,2.8,4.1,3.8l-0.8,26.3l0.8,4.3l5.1,1.3l2.5-3.4l8.3,9.9l7.3-2.6c0,0,1.7,0.8,3.1,2.1c1.5,1.3,10.6,5.5,10.6,5.5
	l4.2-1.7l5.3-4.1l2.2-3.9l8.8,4.8l8.4-13l6.6,2.7l-0.6-29.8l2.4-2.8c2.5-2.9,5.4-6.1,7.6-9.5l0.2-0.6l0.1-0.2l0.2-0.6l0.2-0.3
	l0.2-0.6l0.2-0.5l0.2-0.5l0.3-0.7l0.2-0.5l0.3-0.8l0.2-0.5l0.3-0.9l0.2-0.5l0.3-1l0.1-0.6l0.4-1l0.2-0.5l0.3-1.1l0.1-0.6l0.3-1.2
	l0.1-0.7l0.3-1.2l0.1-0.7l0.3-1.3l0.1-0.7l0.3-1.3l0.1-0.8l0.2-1.5l0.1-0.6l0.2-2.3c0.5-4.3,0.9-7.7,1.1-10.5
	c0.7,0.5,2.4,1.1,4.5-1.2c2.7-2.2,4.9-8.9,4.9-14.4C385.2,199.9,384,194.7,381.3,194"/>
<path class="st4" d="M244.6,253.4c0-1.4-0.2-3.4-0.8-5.7c-0.7-3.5-1.3-5.8-2.7-12c-1.6-7.2-6.2-7.5-7.9-7.3c-1.3,0-7.9,1.9-12.5,5.7
	c-4.7,3.7-4.8,6.4-4.2,8.3c0.5,1.5,2.7,5.8,4.5,8.1c5,6.4,12.5,7.9,9.4,10.2c-1,1-0.8,2.8,0.3,6.7c0.9,2.5,1.7,4.6,2.5,6
	c0.8,1.2,1.6,3.4,4.7,3.7l1.6,0.6L239,281c0,1.4,1.8,5.6,2.7,7.7c0.9,2.4,3.1,13.1,7.9,13.1c2.3,0,4.4-0.6,6.3-1.2
	c4.5-1.4,10.2-5.3,10.9-8.4c1-4.4-1.7-6.2-3.1-8.3c-2.6-2.8-8.6-8.8-10.3-10.7l-1.4-1.4c-1.7-1.7-0.8-2.2-0.1-3.3
	c0.8-1.9-1.7-7.2-2.4-8.4c-1.1-1.6-2.9-3.7-4.6-3.7C241.6,255.8,244.6,255.6,244.6,253.4"/>
<path class="st2" d="M242.3,274.3c4.6-1.9,4.4-2,6-3.5c0.5-0.4,1.9,0.3,0.7,2.4c-0.5,0.9-1.3,0.5-1.2,2.4c0.2,2.5,5.3,6.2,1.9,7
	c-3.1,0.6-4.9-5.3-5.1-6.2h-2.3C240.8,276.4,239.5,275.5,242.3,274.3"/>
<path class="st2" d="M232.5,250c0.4,3.3,2.9,7.1,5,5c1.4-1.3-1.2-1.7-3-9.5C233.4,240.6,232.1,247.4,232.5,250"/>
<path class="st7" d="M239.8,257.6c-2.2,0.3-4.6,0.4-5.7,1.8c-1,1.5-1.2,1.8-0.5,3.2c0.8,1.3,1.2,0.2,2.4-0.9c1.2-1,2.6-1.7,3.7-1.8
	c1-0.2,2.4-0.8,2.8-1.9C242.7,256.9,241.7,257.4,239.8,257.6"/>
<path class="st4" d="M405.4,274.4c1.7,0,4.1-2.6,5.2-4.3c0.7-1.1,3.7-6.4,1.9-8.2c-0.9-1-1.2-1.3,0.3-2.7l1.5-1.5
	c1.8-1.9,9.3-10.3,11.1-12.3c1-1.4,4-3.9,2.8-7.4c-1.1-2.5-8.5-6.5-12.4-8c-2.2-1-4.7-1.8-6.4-2c-3.8-0.4-7,11.1-7.8,13.5
	c-0.7,2.1-1.8,6.8-1.8,8.2l0.8,3.2l-1.6,0.5c-3.5,0.4-5.2,2.7-5.9,3.5c-0.8,0.9-1.9,3.1-2.7,5.4c-1,3.9-0.6,5.5,0.4,6.5
	c3.6,2.2-4,3.2-9.3,10.5c-1.9,2.2-4.6,6.3-5,7.8c-0.6,1.8-1,4,4.7,8c4.3,3.5,12.5,5.5,14,5.6c1.8,0.2,5.6,1.1,7-6
	c1.2-6,1.6-7.8,2.1-10.5c0.6-3.2,0.8-5.8,0.6-6.7C404.7,275.6,401.8,274.6,405.4,274.4"/>
<path class="st2" d="M400.6,273.5c-5.1-0.4-5.1-0.8-6.7-2c-0.5-0.4-2.8,0.8-1.2,2.2c0.6,0.5,1.7,2,1.3,3.7c-0.6,2.3-3.9,6.7-0.7,6.3
	c3.6-0.6,4.5-5.8,4.9-6.6l1.9-1.2C401.6,275.8,403.2,273.7,400.6,273.5"/>
<path class="st2" d="M411,251.3c-1,2.3-1.7,5.4-4.7,3.8c-3.8-2.1,1-5.1,3.8-8.3C412.7,243.9,411.8,249.5,411,251.3"/>
<path class="st7" d="M407,258.3c-1.8-1.5-3.6-3.2-5.4-3.2c-1.8,0.1-2.5,0.4-2.9,2c-0.3,1.5,0.8,1.1,2.3,1.2c1.8,0.3,3.5,1.5,4.5,2.2
	l3.2,0.6C409.3,260.4,408.6,259.7,407,258.3"/>
<path class="st7" d="M306.1,256.5c0,0-2.5-6.4-5.1-6.3c4.5,0,10.6,0.9,15.1,0.6l2.9-0.7c7.1-0.7,15.4,1.4,21.9-0.7
	c-2.2,2.2-3.7,7.5-6.8,9.1c-3.4,1.8-11.4,2.3-16.2,2C312.6,260.2,309.6,258.4,306.1,256.5"/>
<polygon class="st0" points="276.8,221.9 278.2,220.5 280,221.9 278.2,223.6 "/>
<polygon class="st0" points="283.9,226.7 285.5,225.1 287.2,226.7 285.5,228.2 "/>
<path class="st0" d="M289.8,217.9l1.9-1.5l1.5,1.5c-0.3,1.2-0.9,1.6-1.5,1.6C290.4,219.5,289.7,219,289.8,217.9"/>
<polygon class="st0" points="296.9,224.1 298.3,222.4 299.7,224 298.3,225.6 "/>
<polygon class="st0" points="303.9,216.3 305.4,214.9 306.9,216.3 305.3,217.9 "/>
<polygon class="st0" points="337,216.8 338.5,215.6 339.7,217.4 337.9,218.2 "/>
<polygon class="st0" points="346.4,218.6 347.7,217.4 348.9,219.1 347.2,220.3 "/>
<path class="st0" d="M358.9,217.4c0.2-0.9,0.8-1.3,2-1.1l1.1,1.7l-1.7,1.5C359.2,219.2,358.8,218.3,358.9,217.4"/>
<polygon class="st0" points="351.6,224.4 353.7,223.2 354.9,225.1 353.1,226.3 "/>
<polygon class="st0" points="361.5,225.2 363.4,224 364.7,225.8 362.9,227 "/>
<path class="st1" d="M292.5,196.9c-4.6,1.3-8.1,5-9.5,8.7l2.7,2.6c1.3,0.5,5.6-0.3,7.1-0.3c5.1,0.1,10.8-2.3,9.3-5.4
	C302,202.4,297.2,195.6,292.5,196.9"/>
<path class="st1" d="M358.3,205.9c1.3-2.1-4.4-10-8-9.6c-3.6,0.3-6.3,1.7-9.2,6.3l-0.2,1.8c1.3,2.3,5.3,4.1,9.8,4
	c1.5,0,3-0.1,4.2-0.5C355,206.5,357,208,358.3,205.9"/>
<path class="st8" d="M321,327.6c4,1.1,7.5-1.1,8.1-4.1c0.4-1.9-0.2-3.8-0.9-5.1c-0.6-1.3-1.3-1.9-2.7-2.9c-1.4-1-3.6-0.8-4.3-0.6
	l-0.6,0.3C316.8,316.8,314.5,326,321,327.6 M287.2,272.9c0,5.8-0.1,11.5-0.2,19.3c0.6,1,1.4,2.2,2.5,3.8c1.8,2.7,4.5-6.3,7.7-4.4
	c3.4,2,3.3,8.3,6.9,11.3c2.2,1.8,6.2-8.3,8.4-2.8c2.3,5.9,6.4,7.2,10.9,9.6c2-1.8,4.9-2.1,7.3-5.1c2.3-2.8,3.7-5.6,5.4-6.1
	c2.6-0.8,4.2,5.8,7,4.8c4.6-1.8,3.8-10.5,8.1-11.7c2.1-0.6,2.5,3.2,5.1,3.7c2.5,0.4,4.9-8.9,6.3-12.7c0.7-1.9,1.6-2.4,3-1.9
	c2,0.8,2.1,3.6,2.4,8.5c0.2,6.8,3.2,13.3,6.9,17.9c3.7,4.5-5.7,2-9.3-7.8c-2.2-6.2-1.7-6.2-3.3-3.1c0,0-3.1,5.6-5.1,6.2
	c-2.6,0.8-5.1-3.2-5.1-3.2s-3,10.9-8.2,10.9c-4.8,0-6.5-5.4-7.7-3.3c-0.8,1.5-1.9,3.9-6.4,5.5c2.4,2,4.4,3.8,5.3,7.2
	c1.7,8-4,13-10.8,13.6c-4.9,0.3-10.8-1.8-12.3-6.5c-1.7-6,1.8-11.5,5.4-14.1c-3.3-0.9-5.8-3.1-7.8-6c0,0-2.7,4-6.7,3.1
	c-2.7-0.4-6.1-5.6-7.3-10.2c0-0.2-2.8,3.9-6.1,3.4c-4.4-0.8-4.3-4.1-6.5-7.4c-0.5-0.7-2.1-3.1-2.4-1.1c-0.2,1.7-0.7,4-1.9,6.5
	c-2.3,4.7-8.7,9.8-11.6,7.9c2.5-1.1,6.7-6.3,8.1-10.9c1.3-5.2,1.7-10,1.2-15.2c-0.5-4,3.4-1.8,6,1l0.1-2.7c0.2-2.9,0.2-6.1,0.2-9.3
	c0-1.3-0.5-3.9-2.2-5.8c-1.6-2-4.1-6.1-5.4-8.2c0,0-1.7-2.7-2.7-4.7c-1-1.8-1.9-3.9-3.2-7.7c-1-3.1-2.1-7.7-2.8-13.6
	c-0.7-5.9-0.6-7.3-0.7-11.2c0.8,3.7,1.9,9.6,2.3,11.5c1.8,8.7,3.5,12.6,6.4,17.9c2.9,5.4,6.6,9.7,10.1,13.6c2,2.2,6.3,5.9,9.1,8.1
	c3.6,3,5.2,4.4,9.4,7c3.6,2.5,10.3,7.2,19.5,7.1c8.5,0,13.3-3.6,16.1-5.2c6-3.7,9.1-6.5,13.3-10.6c4.8-4.7,7.2-7,10.2-10.5
	c3.7-4.6,7.2-9.5,10.4-21c1.7-6.3,2.8-13.8,3.5-17.8c0.2,1.4,0.3,3.1-0.2,8.8c-0.4,4.2-0.8,7.9-1.7,11.7c-1.2,5.5-2.4,9.2-4.5,13.2
	c-2.2,4.2-2.7,4.5-6.4,10.2c-2.5,3.8-2.6,3.9-2.8,6.7c0,12-2.6,28.3-4.6,2.4c-12.7,11.1-23.6,18.1-33.9,18.3
	C311.9,291.9,301.2,284.9,287.2,272.9 M348.6,193.3c-2.1,0.8-5.5,3.9-6.6,5.7c-1.4,2.3-2.4,6.2-4.2,6.3l-1.1-1.7
	c-1.4,0.3-2.2,1.6-1.9,3l1.9,1.4c3.3,0.5,3.9-2.7,5.1-4.5c1.1-1.5,3.2-3.8,4.5-4.5c1-0.7,2.6-1.1,4,0l-0.6,2.5c-1.5,0-3-0.5-3.7-0.3
	c-0.7,0.1-1.8,2.1-2,4.6c1.6,0.7,2-0.6,3.6-0.6c2.5,0,5,1.7,6.3,0.4c1.2-1.3,1.2-3.7,1.2-4.8c2.1,0.1,3.1,3.3,2.2,4.8
	c-0.8,0.9-2.4,0.7-2.4,2.3c7.3,1.6,8.1-1.6,8.6-3.4c0.4-1.3,0.2-2.5-0.4-4.4C361,194.5,354.5,191.3,348.6,193.3 M280.7,207.7
	c1.4,0.8,4.1,2.2,6.3,1.4l-1-1.3c-1.4,0-2.3-1.3-2.3-2c0.2-1.9,2.1-5,4.4-6.2c2.1-1.5,3.7-0.7,4.3,0.4l-1.1,1.9l-3-0.4
	c-1.6,1.8-1.1,4-0.4,4.8l1.6,0.7c1.1-1.4,3.7-1.4,6.5-1.2c1.2-0.9,1.2-2.9,1.5-4.6c1.9-2.3,2.9,2.3,4.2,4.1c0.9,1.2,1.8,2.5,2.9,2.7
	c2,0.3,4.5-1.4,3.6-4.4l-2.8,0.3c-2.4-2.3-0.2-7-5-9.6c-5.3-2.7-13.4-1.7-16.6,2.5c-1.3,1.5-2.6,3.3-3.7,6.1
	C279.6,204.8,279.1,206.7,280.7,207.7 M330.5,228.2c-3.3-1-4,2.6-7.2,2.6c-4.5,0-5.5-2.9-7.9-2.8c-2,0.2-3,3.4-4.4,3.6
	c-1.1-0.2-0.8,1.6,0.5,2c2.7,0.8,2.2-1.6,3.9-0.9c1.1,0.4,1.3,2.3,4.4,3.7c3,1.5,6.1-0.3,8.8-2.8c1.7-1.7,5-1.7,4.1-2.7L330.5,228.2
	 M337.2,185c0.2,1,3.4,0,4.8-0.6c1-0.4,2-0.9,3.5-1.3l3.4-0.4c2.2,0,3.6,0,5.5,0.4c3.1,0.5,8.8,3.7,9.2,2.2c0.6-2.5-1.6-4.5-3.3-5.5
	c-4-2.2-10.2-3.4-15.7-1.1c-1.9,0.9-2.4,1.7-4.2,2.9C339.2,182.6,337,183.8,337.2,185 M315.3,251.5l4.2-0.4c7-0.6,13.5,1.2,19.9-0.7
	c-2.2,2.2-4.1,5.6-7.3,7.2c-3.4,1.7-9.6,1.7-14.6,1.4c-5-0.3-9.1-3.3-12.5-5.2c-1,2.9,0.5,4.1,2.8,6.1c2.4,2.3,6.2,5.4,12,5.5
	c8.4,0.3,15-0.6,19.2-7.8c1.3-2.3,4.7-7.1,8.3-8.9c2.1-1,6.7-3.2,5.9-4.5c-1.3-1.9-4.1-1.5-6.1-1c-1.5,0.3-1.9,3.1-4.4,3.3
	c-5.8,0.8-11.5-1.4-18.8-1.1c-5.2,0.1-9.3,1.4-15,1.9c-5.4,0.4-7.2-2.5-12.3-3.2c-2.3-0.3-2.7,1.1-1,3.3c1.6,1.8,4.4,3.4,6.7,3.4
	C307,250.8,310.8,251.9,315.3,251.5 M300.8,183.9c-1.3-0.3-2.1-0.8-3.6-1l-3.4-0.1c-2.2,0.1-3.4,0-5.6,0.7c-2.9,0.8-8.5,4.2-9,2.8
	c-0.4-1.8,0.4-3.4,1.6-4.5c3.9-1.3,7.2-2.1,12.2-4.1c1.6,0.1,3.2,0.4,4.8,0.9c1.6,0.8,2.8,1.7,4.4,2.7c1.2,0.8,3.7,2,3.4,3.2
	C305.3,185.1,302.3,184.3,300.8,183.9"/>
</svg>
