<svg xmlns="http://www.w3.org/2000/svg" xmlns:xlink="http://www.w3.org/1999/xlink" version="1.1" width="1000" height="1000" viewBox="0 0 1000 1000" xml:space="preserve">
<g transform="matrix(1.3333 0 0 1.3333 499.8826 394.361)" id="261323">
<path style="stroke: none; stroke-width: 1; stroke-dasharray: none; stroke-linecap: butt; stroke-dashoffset: 0; stroke-linejoin: miter; stroke-miterlimit: 4; is-custom-font: none; font-file-url: none; fill: rgb(0,0,0); fill-rule: nonzero; opacity: 1;" transform=" translate(-349.9181, -280.0109)" d="m 350 525 c -63.441 0.050781 -124.43 -24.512 -170.13 -68.516 c -45.699 -44.004 -72.551 -104.02 -74.898 -167.42 c -2.3477 -63.402 19.992 -125.24 62.312 -172.5 c 42.324 -47.262 101.33 -76.266 164.6 -80.906 c 15.406 -1.1016 30.879 -0.78125 46.227 0.95703 c 62.133 7.168 119.18 37.828 159.43 85.699 c 40.258 47.871 60.68 109.32 57.086 171.77 s -30.934 121.15 -76.414 164.08 c -45.484 42.934 -105.66 66.848 -168.21 66.84 z m 0 -481.25 c -6.125 0 -11.988 0.21484 -17.461 0.63281 c -60.559 4.4844 -117.07 32.117 -157.79 77.156 c -40.73 45.043 -62.547 104.04 -60.93 164.75 c 1.6172 60.703 26.547 118.45 69.617 161.26 c 43.066 42.809 100.97 67.391 161.68 68.645 c 60.711 1.25 119.57 -20.926 164.37 -61.926 c 44.797 -40.996 72.086 -97.672 76.203 -158.26 c 4.1172 -60.586 -15.254 -120.43 -54.09 -167.11 c -38.836 -46.68 -94.156 -76.617 -154.48 -83.59 c -9.0039 -1.0312 -18.055 -1.5469 -27.117 -1.5547 z" stroke-linecap="round"/>
</g>
<g transform="matrix(1.3333 0 0 1.3333 366.7255 270.4523)" id="689548">
<path style="stroke: none; stroke-width: 1; stroke-dasharray: none; stroke-linecap: butt; stroke-dashoffset: 0; stroke-linejoin: miter; stroke-miterlimit: 4; is-custom-font: none; font-file-url: none; fill: rgb(0,0,0); fill-rule: nonzero; opacity: 1;" transform=" translate(-250.0469, -187.077)" d="m 252.44 338.51 c -4.4375 0 -8.3125 -3.2812 -15.266 -10.199 c -3.7227 -3.7305 -5.7734 -5.25 -8.957 -4.7266 c -25.57 3.7227 -41.488 -12.43 -55.492 -26.688 c -1.3633 -1.3867 -2.7227 -2.7617 -4.0703 -4.1172 c -10.203 -10.207 -16.961 -24.145 -23.547 -38.727 c -1.7969 -3.3281 -7 -41.969 -0.29297 -59.652 v -0.70703 h 0.003906 c -0.10547 -1.832 0.21094 -3.6602 0.92188 -5.3477 c 5.5312 -11.328 4.1914 -20.938 -4.332 -31.199 h 0.003906 c -1.1953 -1.4375 -1.3438 -3.4805 -0.36328 -5.0781 c 20.32 -33.129 48.219 -60.957 81.395 -81.195 c 33.176 -20.238 70.688 -32.309 109.44 -35.219 c 1.7891 -0.13281 3.4766 0.83984 4.2578 2.4531 l 3.2539 6.7188 c 5.25 10.828 10.5 21.645 15.855 32.375 c 7 13.949 6.0117 20.316 -5.0391 32.461 v 0.003907 c -0.53125 0.58984 -1.2148 1.0195 -1.9727 1.2461 c -5.5703 1.8906 -20.973 4.1406 -45.676 -14.953 c -16.656 -12.871 -29.848 -6.8516 -45.352 2.375 l -6.8672 4.0352 c -6.1328 3.6758 -10.445 9.7539 -11.887 16.754 c -1.4453 7.0039 0.11328 14.293 4.293 20.094 l 1.1797 1.6406 c 2.2852 3.1797 4.5703 6.3555 6.8594 9.5234 c 2.7031 1.9062 5.3242 1.2891 9.9102 -0.03125 h 0.003906 c 3.3281 -1.1875 6.8633 -1.6875 10.391 -1.4648 c -0.39062 -1.3398 -0.9375 -2.6289 -1.6289 -3.8438 c -7.5586 -13.887 -7.6836 -24.695 -0.33594 -29.648 c 8.5391 -5.6875 22.285 -5.2891 33.48 0.94922 c 0.94922 0.53906 1.8555 1.1484 2.7148 1.8242 c 0.58984 0.49609 1.2383 0.91797 1.9258 1.2656 c 17.656 6.3438 21.137 21.211 24.207 34.328 c 0.76953 3.3164 1.5039 6.4492 2.4414 9.4727 v -0.003906 c 0.90234 2.707 0.55859 5.6758 -0.94531 8.1016 c -1.6641 2.4648 -4.332 4.0664 -7.293 4.375 c -13.27 1.8633 -22.75 9.5273 -31.715 25.617 c -3.3516 9.0156 -1.9297 18.234 -0.4375 28 c 0.375 2.4414 0.75 4.8789 1.0508 7.3203 c 4.3008 17.062 -11.008 29.207 -21.734 32.883 c -6.3281 2.1875 -8.75 0.046875 -9.6562 -2.1055 l -0.23047 -0.58984 c -0.33594 -0.77344 -0.65625 -1.5273 -1.0352 -2.2188 l -0.77734 -1.5078 c -6.7969 -11.965 -16.984 -9.7227 -33.02 -5.0312 c -0.4375 0.14062 -1.3984 0.32812 -2.625 0.54297 c -6.6719 1.1992 -8.875 2.2812 -9.5078 3.0156 c 0.050782 0.058594 0.13672 0.26172 0.32031 0.55859 v -0.003906 c 1.332 2.4297 2.3594 5.0156 3.0625 7.6992 c 1.9102 6.3281 2.6523 8.7031 9.4648 7.5352 l -0.003906 -0.003906 c 3.4297 -0.79297 7.0156 -0.50781 10.277 0.81641 c 3.2578 1.3242 6.0312 3.6211 7.9375 6.5781 c 5.2383 3.1719 9.3945 7.8555 11.922 13.438 c 2.3945 5.8008 7.0469 10.383 12.887 12.688 c 4.6758 1.7812 7.1758 4.3984 7.4375 7.7734 c 0.26172 3.5 -2.0039 6.625 -6.7305 9.2969 c -0.98828 0.57422 -1.9805 1.2734 -2.9766 1.9648 c -0.65625 0.4375 -1.3125 0.91406 -1.9766 1.3516 c -7.0547 4.7188 -11.324 7.1875 -15.156 7.1875 z m -23.109 -23.766 c 5.4961 0.40625 10.574 3.0781 14.027 7.3711 c 4.1797 4.1641 7.4883 7.4375 9.0859 7.6172 c 3.7617 -1.2266 7.2539 -3.1562 10.293 -5.6875 c 0.65625 -0.4375 1.2461 -0.84375 1.8438 -1.2539 c 1.1914 -0.82812 2.3906 -1.6562 3.6211 -2.375 c 0.50391 -0.28125 0.98438 -0.58984 1.4492 -0.92578 c -0.25391 -0.11328 -0.55078 -0.24609 -0.90625 -0.37891 c -7.9219 -3.0586 -14.273 -9.1875 -17.617 -16.992 c -1.8945 -4.3047 -5.1445 -7.875 -9.2539 -10.16 c -0.77734 -0.40625 -1.418 -1.0352 -1.832 -1.8047 c -1.8789 -3.5 -5.9453 -5.2109 -9.7578 -4.1055 c -14.438 2.4414 -17.477 -7.6172 -19.293 -13.633 c -0.50781 -1.9883 -1.2422 -3.9141 -2.1875 -5.7344 c -1.7539 -2.5195 -2.0859 -5.7695 -0.875 -8.5898 c 2.5938 -5.6875 10.996 -7.1914 16.016 -8.0898 c 0.73047 -0.13281 1.3125 -0.22266 1.6523 -0.32031 c 14.539 -4.2422 32.562 -9.5078 43.242 9.3203 l 0.80078 1.5391 c 0.12109 0.22266 0.25 0.46875 0.37891 0.73438 l 0.003906 0.003906 c 5.2422 -1.9531 9.8516 -5.3047 13.324 -9.6875 c 2.9102 -3.6641 3.9141 -8.4883 2.6953 -13.008 c -0.054687 -0.19141 -0.09375 -0.39063 -0.11719 -0.58984 c -0.29688 -2.4414 -0.67188 -4.8867 -1.0547 -7.3281 c -1.625 -10.551 -3.3047 -21.465 1.0156 -32.738 c 0.074219 -0.19141 0.15625 -0.375 0.25391 -0.55078 c 6.957 -12.59 17.598 -27.414 38.32 -30.324 c 0.42188 -0.007813 0.82812 -0.16406 1.1484 -0.4375 c 0.058593 -0.27344 0.03125 -0.55469 -0.074219 -0.8125 c -1.0156 -3.2773 -1.8203 -6.707 -2.5938 -10.023 c -2.9297 -12.531 -5.4648 -23.348 -18.68 -28.102 h -0.003906 c -1.5117 -0.61719 -2.9258 -1.457 -4.1914 -2.4922 c -0.52344 -0.42578 -1.082 -0.80859 -1.6641 -1.1484 c -8.2188 -4.5859 -18.688 -5.1562 -24.395 -1.3516 c -3.4062 2.2969 -0.875 10.805 3.1562 18.215 h -0.003906 c 1.2695 2.2109 2.1914 4.6055 2.7305 7.0977 c 0.58594 2.3711 0.054687 4.875 -1.4453 6.8008 c -1.7188 1.9961 -4.2578 3.0977 -6.8906 2.9805 c -0.32031 -0.003906 -0.64062 -0.035156 -0.95703 -0.09375 c -2.5391 -0.19922 -5.0938 0.17578 -7.4688 1.0977 c -5.9766 2.668 -12.918 1.9531 -18.227 -1.8711 c -0.30859 -0.24219 -0.57813 -0.52734 -0.80859 -0.84375 c -2.4336 -3.3555 -4.8438 -6.7148 -7.2617 -10.062 l -1.1758 -1.6367 c -5.6211 -7.793 -7.7148 -17.586 -5.7695 -26.992 c 1.9414 -9.4102 7.7461 -17.57 15.992 -22.5 c 1.2344 -0.73438 2.4727 -1.457 3.7031 -2.1875 l 3.1836 -1.8594 c 17.113 -10.176 34.207 -17.98 55.172 -1.7852 c 20.602 15.93 32.898 14.77 36.637 13.852 c 8.2266 -9.1875 7.9062 -11.746 2.8789 -21.762 c -5.3945 -10.789 -10.645 -21.633 -15.906 -32.5 l -1.9531 -4.0234 c -36.324 3.1836 -71.422 14.715 -102.55 33.699 c -31.133 18.98 -57.461 44.898 -76.93 75.73 c 4.3125 5.2812 6.9492 11.727 7.5703 18.516 c 0.625 6.7852 -0.79297 13.605 -4.0703 19.582 c -0.035157 0.17578 -0.042969 1.0234 -0.042969 1.582 c 0 0.68359 0 1.3516 -0.074219 1.9922 c -0.039062 0.4375 -0.14453 0.86719 -0.3125 1.2734 c -5.9492 14.469 -1.3125 49.688 -0.058593 53.586 c 6.5625 14.438 12.621 26.91 21.707 36 c 1.3711 1.3711 2.7461 2.7695 4.1211 4.1797 c 13.77 14.027 26.773 27.258 47.973 24.176 h 0.003906 c 0.79297 -0.12109 1.5938 -0.17969 2.3945 -0.18359 z m 41.883 -50.828 l 0.027343 0.058593 z" stroke-linecap="round"/>
</g>
<g transform="matrix(1.3333 0 0 1.3333 678.8406 272.4702)" id="541850">
<path style="stroke: none; stroke-width: 1; stroke-dasharray: none; stroke-linecap: butt; stroke-dashoffset: 0; stroke-linejoin: miter; stroke-miterlimit: 4; is-custom-font: none; font-file-url: none; fill: rgb(0,0,0); fill-rule: nonzero; opacity: 1;" transform=" translate(-484.1332, -188.5904)" d="m 569.98 340.6 c -4.457 -0.4375 -8.2969 -3.3125 -9.9766 -7.4609 l -0.66016 -1.1289 c -2.3203 -3.7578 -4.5 -7.6094 -6.6875 -11.453 c -3.2031 -5.6523 -6.5234 -11.496 -10.199 -16.867 c -7.1758 -10.387 0.61719 -42.41 0.70312 -42.723 c 1.1641 -2.5586 1.2539 -5.4805 0.24609 -8.1055 c -1.1992 -1.75 -4.6172 -2.3203 -7.2617 -2.5078 l -5.2227 -0.4375 h -0.003907 c -11.547 -0.33203 -22.961 -2.5391 -33.801 -6.5352 c -0.91406 -0.39062 -1.668 -1.0742 -2.1406 -1.9492 c -6.8516 -13.941 -10.637 -29.191 -11.098 -44.719 c -0.72656 -10.441 -0.47656 -21.066 -0.23438 -31.34 l 0.125 -5.7266 c 0.09375 -5.0234 -0.75781 -6.043 -3.7148 -6.9258 c -4.4883 -1.2461 -8.5156 -3.7695 -11.594 -7.2656 c -3.0742 -3.4961 -5.0664 -7.8125 -5.7305 -12.422 c -0.81641 -4.0742 -2.207 -8.0078 -4.1289 -11.691 c -7.0703 -14.367 -14.762 -17.727 -28.344 -12.406 h -0.003906 c -4.207 2.168 -9.1367 2.4453 -13.562 0.76562 c -3.9336 -2.2383 -6.7812 -5.9922 -7.875 -10.387 c -0.42188 -1.1875 -0.91797 -2.3477 -1.4844 -3.4766 c -1.8711 -3.1211 -2.7422 -6.7422 -2.4961 -10.375 c 1.3711 -8.207 -1.3125 -11.242 -12.023 -13.562 c -4.5195 -0.74219 -8.6562 -2.9883 -11.738 -6.3711 c -3.0859 -3.3867 -4.9375 -7.7148 -5.2578 -12.281 c -0.57031 -3.7656 -1.3789 -7.4922 -2.4141 -11.152 c -0.375 -1.3984 -0.035157 -2.8945 0.91016 -3.9922 c 0.9375 -1.1055 2.3711 -1.668 3.8086 -1.4922 c 46.035 5.3633 89.605 23.66 125.67 52.77 c 36.062 29.109 63.141 67.836 78.098 111.7 c 14.957 43.863 17.18 91.066 6.4141 136.14 c -0.46875 2.0352 -2.3281 3.4492 -4.418 3.3555 l -10.832 -0.41406 v -0.003906 c -1 0.28125 -2.0352 0.42578 -3.0703 0.43359 z m -68.031 -104.7 c 9.5781 3.207 19.578 4.9922 29.676 5.3008 l 5.2109 0.4375 h -0.003906 c 5.3086 -0.17578 10.395 2.1328 13.762 6.2422 c 2.7188 4.7617 3.0703 10.516 0.95312 15.57 c -2.2695 7.7266 -5.25 30.395 -1.8867 35.285 c 3.8945 5.6875 7.3047 11.695 10.605 17.5 c 2.1289 3.7617 4.2617 7.5195 6.5273 11.195 l 0.78906 1.3477 c 1.9414 3.3672 2.1484 3.2969 3.5 2.8438 c 0.5 -0.17188 1.0273 -0.25 1.5586 -0.22266 l 7.9336 0.30078 h -0.003906 c 9.4766 -42.52 7.0312 -86.832 -7.0742 -128.05 c -14.105 -41.219 -39.32 -77.738 -72.863 -105.54 c -33.543 -27.797 -74.109 -45.793 -117.23 -52 c 0.4375 1.9258 0.79297 3.9141 1.0781 5.9531 c 0.11719 5.7734 4.457 10.586 10.188 11.297 c 6.5625 1.4141 21.926 4.7305 18.812 23.527 c 0.23047 1.8438 0.83594 3.6172 1.7812 5.2148 c 0.71484 1.4453 1.3438 2.9336 1.875 4.4531 c 0.97266 2.8906 2.0703 4.6562 3.2695 5.2109 c 2.2734 0.48438 4.6445 0.13672 6.6836 -0.97266 c 17.836 -7 30.363 -1.6797 39.375 16.664 c 2.2891 4.4102 3.9375 9.1211 4.8945 14 c 0.35156 3.0312 1.6172 5.8867 3.625 8.1875 c 2.0078 2.3008 4.6641 3.9414 7.6211 4.7031 c 6.7539 1.8945 11.023 8.543 9.9414 15.473 l -0.125 5.7656 c -0.23438 10.062 -0.48047 20.488 0.21875 30.539 l -0.003907 -0.003906 c 0.35938 13.758 3.5273 27.293 9.3125 39.777 z" stroke-linecap="round"/>
</g>
<g transform="matrix(1.3333 0 0 1.3333 544.8442 558.4965)" id="247075">
<path style="stroke: none; stroke-width: 1; stroke-dasharray: none; stroke-linecap: butt; stroke-dashoffset: 0; stroke-linejoin: miter; stroke-miterlimit: 4; is-custom-font: none; font-file-url: none; fill: rgb(0,0,0); fill-rule: nonzero; opacity: 1;" transform=" translate(-383.6359, -403.1088)" d="m 365.51 499.3 c -3.2344 0.13281 -6.418 -0.83203 -9.0391 -2.7344 c -5.1562 -3.9375 -6.0039 -11.098 -6.1836 -16.129 h 0.003906 c -0.48828 -7.9609 -1.5312 -15.879 -3.1172 -23.691 c -0.875 -5 -1.8164 -10.172 -2.4531 -15.34 c -0.35156 -2.8164 -1.0234 -3.5273 -1.2188 -3.6758 c -0.78516 -0.32422 -1.6562 -0.38672 -2.4766 -0.16797 c -9.7266 1.4297 -16.121 -3.7539 -21.109 -8.9961 c -3.4414 -3.6211 -7 -7.1484 -10.547 -10.672 h -0.003907 c -12.16 -10.988 -22.672 -23.676 -31.211 -37.672 c -1.7031 -2.6406 -2.6016 -5.7227 -2.5859 -8.8672 c 0.015625 -3.1445 0.94922 -6.2148 2.6836 -8.8398 c 13.941 -24.859 36.137 -44.062 62.746 -54.285 c 2.8008 -1.2383 5.9062 -1.6211 8.9258 -1.0938 c 3.0195 0.52734 5.8125 1.9375 8.0273 4.0508 c 12.688 10.602 24.707 14.559 37.844 12.383 c 5.6445 -0.71094 11.281 1.3633 15.121 5.5586 c 10.121 10.129 24.688 14.43 38.688 11.426 c 23.945 -4.75 33.504 12.797 39.812 24.406 c 2.5117 3.4727 2.9922 8.0195 1.2539 11.938 c -1.4492 2.8945 -2.793 5.8633 -4.1445 8.832 c -6.3516 14 -12.922 28.477 -29.465 35.836 c -7.3398 3.2344 -9.8086 7.6055 -8.5234 15.094 c 2.4297 14.109 -5.6367 21.059 -12.93 25.535 h 0.003906 c -13.738 8.7227 -26.945 18.262 -39.547 28.562 c -6.4531 5.0703 -14.438 9.9453 -24.613 7.875 c -1.9531 0.42188 -3.9414 0.64453 -5.9414 0.66797 z m -23.305 -70.586 c 2.3633 -0.070313 4.6875 0.64844 6.5938 2.0469 c 2.7891 2.418 4.4531 5.8828 4.6016 9.5703 c 0.61328 4.9336 1.5156 9.9961 2.3828 14.875 h 0.003906 c 1.6523 8.2109 2.7383 16.531 3.2461 24.895 c 0.18359 5.0547 1.1094 8.2461 2.7578 9.5078 h -0.003906 c 2.7461 1.2617 5.8789 1.3594 8.6992 0.27734 c 0.66016 -0.16406 1.3516 -0.16406 2.0117 0 c 6.6836 1.6133 11.906 -1.1055 18.172 -6.0273 l 0.003906 -0.003907 c 12.871 -10.504 26.359 -20.238 40.383 -29.148 c 7.8242 -4.8125 10.148 -9.1445 8.8711 -16.586 h 0.003907 c -1.2188 -5.0547 -0.49609 -10.383 2.0195 -14.934 c 2.5156 -4.5469 6.6484 -7.9922 11.578 -9.6445 c 13.488 -6.0039 19.102 -18.375 25.047 -31.449 c 1.3906 -3.0625 2.7852 -6.125 4.2812 -9.1406 v -0.027344 c 0.37109 -0.73047 0.18359 -1.375 -1.1367 -3.8203 c -7.4883 -13.754 -14.098 -23.227 -30.445 -19.992 v 0.003906 c -16.77 3.5039 -34.18 -1.6172 -46.375 -13.645 c -3.6562 -3.5 -6.1562 -3.5352 -7.7148 -3.2852 c -15.613 2.5586 -30.273 -2.125 -44.844 -14.297 c -2.0273 -2.2539 -5.3008 -2.8945 -8.0273 -1.5742 c -24.785 9.4922 -45.465 27.359 -58.457 50.5 c -2.0273 2.7227 -2.0391 6.4492 -0.035157 9.1875 c 7.5625 13.707 18.316 24.383 29.707 35.684 c 3.6133 3.582 7.2227 7.168 10.727 10.852 c 5.1406 5.4023 8.6641 7.0664 13.5 6.3711 v -0.003906 c 0.8125 -0.125 1.6289 -0.1875 2.4492 -0.19141 z" stroke-linecap="round"/>
</g>
</svg>